<svg height="16" viewBox="0 0 16 16" width="16" xmlns="http://www.w3.org/2000/svg"><path d="m0 0h16v16h-16z" fill="none"/><path d="m14 12.5c0-.663-.263-1.299-.732-1.768s-1.105-.732-1.768-.732c-2.053 0-4.947 0-7 0-.663 0-1.299.263-1.768.732s-.732 1.105-.732 1.768v2.5h12s0-.853 0-2.5zm-2-6.5h2c.53 0 1.039.211 1.414.586s.586.884.586 1.414v3h-1.337c-.562-1.182-1.767-2-3.163-2h-.855c.831-.733 1.355-1.806 1.355-3zm-10.663 5h-1.337s0-1.608 0-3c0-.53.211-1.039.586-1.414s.884-.586 1.414-.586h2c0 1.194.524 2.267 1.355 3h-.855c-1.396 0-2.601.817-3.163 2zm6.663-8c1.656 0 3 1.344 3 3s-1.344 3-3 3-3-1.344-3-3 1.344-3 3-3zm-3.873 1.996c-.042.003-.084.004-.127.004-1.104 0-2-.896-2-2s.896-2 2-2c.954 0 1.753.67 1.952 1.564-.891.533-1.558 1.402-1.825 2.432zm5.921-2.432c.199-.894.998-1.564 1.952-1.564 1.104 0 2 .896 2 2s-.896 2-2 2c-.043 0-.085-.001-.127-.004-.267-1.03-.934-1.899-1.825-2.432z"/></svg>