<svg viewBox="0 0 72 72" xmlns="http://www.w3.org/2000/svg"><path d="m24.6238 26.7277c-.0512.5466-.0775 1.1026-.0775 1.6664 0 7.8277 5.0765 14.1732 11.3386 14.1732 6.2622 0 11.3386-6.3455 11.3386-14.1732 0-1.1581-.1111-2.2838-.3208-3.3613" style="fill:none;stroke:#000;stroke-linecap:round;stroke-linejoin:round;stroke-miterlimit:10;stroke-width:2"/><path d="m41.8851 27.0333c0 1.1045-.8965 2-2 2s-2-.8955-2-2c0-1.1035.8965-2 2-2s2 .8965 2 2"/><path d="m33.8851 27.0333c0 1.1045-.8965 2-2 2s-2-.8955-2-2c0-1.1035.8965-2 2-2s2 .8965 2 2"/><path d="m35.8849 37.0357c-1.1518 0-2.3037-.2861-3.4472-.8579-.4942-.2471-.6944-.8477-.4473-1.3418.2466-.4936.8462-.6943 1.3418-.4473 1.7178.8594 3.3877.8594 5.1055 0 .4946-.247 1.0947-.0463 1.3418.4473.247.4941.0468 1.0947-.4473 1.3418-1.1436.5718-2.2954.8579-3.4473.8579z"/><g style="fill:none;stroke:#000;stroke-linecap:round;stroke-linejoin:round;stroke-miterlimit:10;stroke-width:2"><path d="m62.6179 60.9619h-14.6076v-18.6358h11.8252v2.1124h2.7824z"/><path d="m51.2144 38.8631h14.8254v18.6359"/><path d="m59.8355 42.3261 2.7824 2.1124"/><path d="m50.9548 48.5348h8.4327"/><path d="m50.9548 52.6312h8.4327"/><path d="m50.9548 56.2155h8.4327"/><path d="m33.4552 48.5348s-1.2063 6.0215 2.3073 6.0215 2.3073-6.0215 2.3073-6.0215"/><path d="m44.7 55.6292-5.7399 2.1783"/><path d="m27.3738 18.7874s10.1357 7.9589 10.5113 2.439c0 0 5.3353 3.8061 9.0176 3.8064 6.4331.0005-.131-12.4794-11.1402-15.1193-3.1441-.7528-9.8929-1.7551-9.8929 4.4592 0 0-7.6176 4.2314-1.3233 12.5495l.0911-.3328c.3131-3.0795 2.7364-7.802 2.7364-7.802z"/><path d="m16.825 57.8861s-2-13 10-13c3.1919 2.1279 5.9264 3.5984 9 3.5921h-.125c3.0736.0063 5.8081-1.4642 9-3.5921"/><path d="m34.9121 54.5563-2.4152 3.2448-5.6719-12.915-3.9574 8.4837 9.4578 4.4313"/><path d="m44.7 44.8861-5.6719 12.915-2.4152-3.2448"/></g></svg>